# xmcd CD database file
#
# Track frame offsets:
#	150
#	13471
#	32777
#	48561
#	61593
#	82953
#	98895
#	111746
#	127792
#	145398
#	167060
#
# Disc length: 2451 seconds
#
# Revision: 8
# Processed by: cddbd v1.5.1PL2 Copyright (c) Steve Scherf et al.
# Submitted via: CDex 1.51
#
DISCID=9509910b
DTITLE=矢井田瞳 - Candlize
DYEAR=2001
DGENRE=JPop
TTITLE0=キャンドル
TTITLE1=Buzzstyle
TTITLE2=Look Back Again
TTITLE3=Not Still Over
TTITLE4=Over The Distance (Album Version)
TTITLE5=I'm Here Saying Nothing (Album Version)
TTITLE6=空の作り方
TTITLE7=贅沢な世界
TTITLE8=手と涙
TTITLE9=Life's Like A Love Song
TTITLE10=Maze
EXTD=YEAR: 2001
EXTT0=
EXTT1=
EXTT2=
EXTT3=
EXTT4=
EXTT5=
EXTT6=
EXTT7=
EXTT8=
EXTT9=
EXTT10=
PLAYORDER=
